<?xml version="1.0" encoding="utf-8"?>
<!-- Generated by IcoMoon.io -->
<!DOCTYPE svg PUBLIC "-//W3C//DTD SVG 1.1//EN" "http://www.w3.org/Graphics/SVG/1.1/DTD/svg11.dtd">
<svg version="1.1" xmlns="http://www.w3.org/2000/svg" xmlns:xlink="http://www.w3.org/1999/xlink" width="214" height="200" viewBox="0 0 214 200">
<g id="icomoon-ignore">
	<line stroke-width="1" x1="" y1="" x2="" y2="" stroke="#449FDB" opacity=""></line>
</g>
	<path d="M5.022 107.143q0-1.451 1.116-2.567l52.009-52.009q1.116-1.116 2.567-1.116t2.567 1.116l5.58 5.58q1.116 1.116 1.116 2.567t-1.116 2.567l-43.862 43.862 43.862 43.862q1.116 1.116 1.116 2.567t-1.116 2.567l-5.58 5.58q-1.116 1.116-2.567 1.116t-2.567-1.116l-52.009-52.009q-1.116-1.116-1.116-2.567zM79.464 177.232l41.629-144.085q0.446-1.451 1.73-2.176t2.623-0.279l6.92 1.897q1.451 0.446 2.176 1.73t0.279 2.734l-41.629 144.085q-0.446 1.451-1.73 2.176t-2.623 0.279l-6.92-1.897q-1.451-0.446-2.176-1.73t-0.279-2.734zM144.308 153.571q0-1.451 1.116-2.567l43.862-43.862-43.862-43.862q-1.116-1.116-1.116-2.567t1.116-2.567l5.58-5.58q1.116-1.116 2.567-1.116t2.567 1.116l52.009 52.009q1.116 1.116 1.116 2.567t-1.116 2.567l-52.009 52.009q-1.116 1.116-2.567 1.116t-2.567-1.116l-5.58-5.58q-1.116-1.116-1.116-2.567z" fill="#000000"></path>
</svg>
