<svg xmlns="http://www.w3.org/2000/svg" width="214" height="200" viewBox="0 0 214 200"><path stroke="#449FDB" d="M0 0"/><path d="M5.022 107.143q0-1.45 1.116-2.567l52.01-52.01q1.115-1.115 2.566-1.115t2.567 1.117l5.58 5.58q1.117 1.116 1.117 2.567T68.86 63.28L25 107.144l43.86 43.862q1.117 1.116 1.117 2.567t-1.116 2.567l-5.58 5.58q-1.115 1.115-2.566 1.115t-2.567-1.116l-52.01-52.01q-1.115-1.116-1.115-2.567zm74.442 70.09l41.63-144.086q.445-1.45 1.73-2.176t2.622-.278l6.92 1.897q1.45.445 2.176 1.73t.28 2.733L93.19 181.138q-.446 1.45-1.73 2.176t-2.623.28l-6.92-1.898q-1.452-.446-2.177-1.73t-.28-2.734zm64.844-23.662q0-1.45 1.116-2.566l43.862-43.862-43.862-43.862q-1.116-1.116-1.116-2.567t1.116-2.567l5.58-5.58q1.116-1.116 2.567-1.116t2.568 1.116l52.01 52.01q1.115 1.115 1.115 2.566t-1.116 2.567l-52.01 52.008q-1.115 1.116-2.566 1.116t-2.566-1.116l-5.58-5.58q-1.116-1.116-1.116-2.567z"/></svg>