<svg xmlns="http://www.w3.org/2000/svg" viewBox="0 0 16.662 16.662" enable-background="new 0 0 16.662 16.662"><path d="M13.365.324H3.297L0 5.11l8.33 11.228 8.332-11.23L13.365.325zm1.848 4.41h-3.4L13.11 1.68l2.103 3.054zm-2.687-3.43l-1.342 3.155L9.07 1.302h3.456zm-1.982 3.43H6.442l1.91-3.273 2.192 3.274zm-2.896-3.43L5.856 4.377l-1.67-3.075h3.462zm-4.064.33l1.685 3.1H1.45l2.134-3.1zM1.45 5.42h4.124l1.95 8.185L1.45 5.42zm4.83 0h4.547L8.36 14.154 6.28 5.42zm3 7.993l2.26-7.992h3.67l-5.93 7.993z" fill="#010002"/></svg>