<svg xmlns="http://www.w3.org/2000/svg" xmlns:xlink="http://www.w3.org/1999/xlink" width="0" height="0" style="position:absolute">

<symbol id="code" viewBox="0 0 214 200">
        <path stroke="#449FDB" d="M0 0"/><path d="M5.022 107.143q0-1.45 1.116-2.567l52.01-52.01q1.115-1.115 2.566-1.115t2.567 1.118l5.58 5.58q1.118 1.116 1.118 2.567T68.86 63.28L25 107.144l43.86 43.862q1.117 1.116 1.117 2.567t-1.116 2.567l-5.58 5.58q-1.114 1.115-2.565 1.115t-2.567-1.116l-52.01-52.01q-1.115-1.117-1.115-2.568zm74.442 70.09l41.63-144.086q.445-1.45 1.73-2.176t2.622-.277l6.92 1.897q1.45.445 2.176 1.73t.28 2.733L93.19 181.138q-.446 1.45-1.73 2.176t-2.623.28l-6.92-1.898q-1.452-.446-2.177-1.73t-.28-2.734zm64.844-23.662q0-1.45 1.116-2.565l43.862-43.862-43.862-43.862q-1.116-1.115-1.116-2.566t1.116-2.567l5.58-5.58q1.116-1.116 2.567-1.116t2.57 1.117l52.01 52.01q1.114 1.115 1.114 2.566t-1.116 2.567l-52.01 52.008q-1.115 1.116-2.566 1.116t-2.566-1.116l-5.58-5.58q-1.116-1.116-1.116-2.567z"/>
</symbol>

<symbol id="diamond" viewBox="0 0 16.662 16.662">
        <path d="M13.365.324H3.297L0 5.11l8.33 11.228 8.332-11.23L13.365.325zm1.848 4.41h-3.4L13.11 1.68l2.103 3.054zm-2.687-3.43L11.184 4.46 9.07 1.3h3.456zm-1.982 3.43H6.442l1.91-3.273 2.192 3.275zm-2.896-3.43L5.856 4.377l-1.67-3.075h3.462zm-4.064.33l1.685 3.1H1.45l2.134-3.1zM1.45 5.42h4.124l1.95 8.185L1.45 5.42zm4.83 0h4.547L8.36 14.154 6.28 5.42zm3 7.993l2.26-7.992h3.67l-5.93 7.994z" fill="#010002"/>
</symbol>
</svg>