<svg xmlns="http://www.w3.org/2000/svg" xmlns:xlink="http://www.w3.org/1999/xlink" width="0" height="0" style="position:absolute">

    <symbol id="code" viewBox="0 0 214 200">
        <path stroke="#449FDB" d="M0 0"/><path d="M5.022 107.143q0-1.45 1.116-2.567l52.01-52.01q1.115-1.115 2.566-1.115t2.567 1.117l5.58 5.58q1.117 1.116 1.117 2.567t-1.118 2.565l-43.86 43.864 43.86 43.862q1.117 1.116 1.117 2.567t-1.116 2.567l-5.58 5.58q-1.115 1.115-2.566 1.115t-2.567-1.116l-52.01-52.01q-1.115-1.116-1.115-2.567zm74.442 70.09l41.63-144.086q.445-1.45 1.73-2.176t2.622-.278l6.92 1.897q1.45.445 2.176 1.73t.28 2.733l-41.632 144.085q-.446 1.45-1.73 2.176t-2.623.28l-6.92-1.898q-1.452-.446-2.177-1.73t-.28-2.734zm64.844-23.662q0-1.45 1.116-2.566l43.862-43.862-43.862-43.862q-1.116-1.116-1.116-2.567t1.116-2.567l5.58-5.58q1.116-1.116 2.567-1.116t2.568 1.116l52.01 52.01q1.115 1.115 1.115 2.566t-1.116 2.567l-52.01 52.008q-1.115 1.116-2.566 1.116t-2.566-1.116l-5.58-5.58q-1.116-1.116-1.116-2.567z"/>
    </symbol>

    <symbol id="logo" viewBox="0 0 916 107">
        <title>logo</title><desc>Created with Sketch.</desc><path d="M.688 98.672c0 3.024 2.448 5.328 5.328 5.328 3.024 0 5.328-2.304 5.328-5.328v-93.168c0-2.88-2.304-5.328-5.328-5.328-2.88 0-5.328 2.448-5.328 5.328v93.168zm25.016-83.952c0 4.032 3.312 7.344 7.344 7.344s7.488-3.312 7.488-7.344c0-4.176-3.456-7.488-7.488-7.488s-7.344 3.312-7.344 7.488zm2.016 83.952c0 3.024 2.448 5.328 5.328 5.328 3.024 0 5.328-2.304 5.328-5.328v-57.456c0-2.88-2.304-5.328-5.328-5.328-2.88 0-5.328 2.448-5.328 5.328v57.456zm87.496 0c0 3.024 2.304 5.328 5.328 5.328 3.024 0 5.328-2.304 5.328-5.328v-32.112c0-18-13.248-32.688-31.248-32.688-11.232 0-21.168 5.04-27.072 13.248v-5.904c0-2.88-2.304-5.328-5.328-5.328-2.88 0-5.328 2.448-5.328 5.328v57.456c0 3.024 2.448 5.328 5.328 5.328 3.024 0 5.328-2.304 5.328-5.328v-31.104c0-11.808 10.368-23.328 24.912-23.328 12.528 0 22.752 9.36 22.752 23.328v31.104zm87.208-27.648c2.88 0 5.616-2.304 5.328-6.192-1.008-18.144-15.984-30.96-34.272-30.96-20.016 0-36.144 16.128-36.144 36.144s16.128 36.144 36.144 36.144c8.496 0 16.272-3.024 22.464-7.92 2.304-1.872 2.592-5.04.864-7.488-1.872-2.448-5.472-2.736-7.632-1.008-4.464 3.6-10.08 5.76-15.984 5.76-13.68 0-24.912-10.944-25.488-24.48h54.72zm-29.232-26.64c10.656 0 20.736 5.76 22.032 17.136h-46.08c3.456-9.936 12.96-17.136 24.048-17.136zm59.848 38.304c0 6.192-4.176 10.656-10.368 10.656h-8.928c-3.024 0-5.328 2.304-5.328 5.328 0 3.024 2.304 5.328 5.328 5.328h9.36c12.096 0 20.592-8.352 20.592-20.448v-26.352c0-6.192 4.32-10.656 10.368-10.656h8.928c3.024 0 5.328-2.304 5.328-5.328 0-2.88-2.304-5.328-5.328-5.328h-9.36c-12.096 0-20.592 8.352-20.592 20.448v26.352zm97.288 15.984c0 3.024 2.448 5.328 5.328 5.328 3.024 0 5.328-2.304 5.328-5.328v-57.456c0-2.88-2.304-5.328-5.328-5.328-2.88 0-5.328 2.448-5.328 5.328v6.048c-5.904-8.064-15.12-13.392-26.064-13.392-19.584 0-34.992 16.128-34.992 36.144s15.408 36.144 34.992 36.144c10.944 0 20.16-5.184 26.064-13.248v5.76zm-50.4-28.656c0-14.112 10.224-25.776 24.192-25.776 14.112 0 26.208 11.232 26.208 25.776 0 14.4-12.096 25.632-26.208 25.632-13.968 0-24.192-11.664-24.192-25.632zm138.752 28.656c0 3.024 2.304 5.328 5.328 5.328 3.024 0 5.328-2.304 5.328-5.328v-32.112c0-18-13.248-32.688-31.248-32.688-11.232 0-21.168 5.04-27.072 13.248v-5.904c0-2.88-2.304-5.328-5.328-5.328-2.88 0-5.328 2.448-5.328 5.328v57.456c0 3.024 2.448 5.328 5.328 5.328 3.024 0 5.328-2.304 5.328-5.328v-31.104c0-11.808 10.368-23.328 24.912-23.328 12.528 0 22.752 9.36 22.752 23.328v31.104zm83.176 0c0 3.024 2.448 5.328 5.328 5.328 3.024 0 5.328-2.304 5.328-5.328v-93.168c0-2.88-2.304-5.328-5.328-5.328-2.88 0-5.328 2.448-5.328 5.328v41.76c-5.904-8.064-15.12-13.392-26.064-13.392-19.584 0-34.992 16.128-34.992 36.144s15.408 36.144 34.992 36.144c10.944 0 20.16-5.184 26.064-13.248v5.76zm-50.4-28.656c0-14.112 10.224-25.776 24.192-25.776 14.112 0 26.208 11.232 26.208 25.776 0 14.4-12.096 25.632-26.208 25.632-13.968 0-24.192-11.664-24.192-25.632zm137.032 31.824c.72 1.44 2.448 2.592 4.464 2.592 2.016 0 3.744-1.152 4.464-2.592l30.816-58.032c1.296-2.448.72-5.904-2.16-7.344-2.592-1.296-5.76-.432-7.2 2.448l-25.92 48.816-12.816-23.472 11.088-20.448c1.296-2.448.72-5.904-2.16-7.344-2.592-1.296-5.76-.432-7.2 2.448l-7.488 14.544-7.344-14.544c-1.44-2.88-4.608-3.744-7.2-2.448-2.88 1.44-3.456 4.896-2.16 7.344l11.088 20.448-12.816 23.472-25.92-48.816c-1.44-2.88-4.608-3.744-7.2-2.448-2.88 1.44-3.456 4.896-2.16 7.344l30.816 58.032c.72 1.44 2.448 2.592 4.464 2.592 2.016 0 3.744-1.152 4.464-2.592l13.968-27.072 14.112 27.072zm103.048-3.168c0 3.024 2.448 5.328 5.328 5.328 3.024 0 5.328-2.304 5.328-5.328v-57.456c0-2.88-2.304-5.328-5.328-5.328-2.88 0-5.328 2.448-5.328 5.328v6.048c-5.904-8.064-15.12-13.392-26.064-13.392-19.584 0-34.992 16.128-34.992 36.144s15.408 36.144 34.992 36.144c10.944 0 20.16-5.184 26.064-13.248v5.76zm-50.4-28.656c0-14.112 10.224-25.776 24.192-25.776 14.112 0 26.208 11.232 26.208 25.776 0 14.4-12.096 25.632-26.208 25.632-13.968 0-24.192-11.664-24.192-25.632zm104.488 34.416c2.016 0 3.744-1.152 4.464-2.592l30.816-58.032c1.296-2.448.72-5.904-2.16-7.344-2.592-1.296-5.76-.432-7.2 2.448l-25.92 48.816-25.92-48.816c-1.44-2.88-4.608-3.744-7.2-2.448-2.88 1.44-3.456 4.896-2.16 7.344l30.816 58.032c.72 1.44 2.448 2.592 4.464 2.592zm102.616-33.408c2.88 0 5.616-2.304 5.328-6.192-1.008-18.144-15.984-30.96-34.272-30.96-20.016 0-36.144 16.128-36.144 36.144s16.128 36.144 36.144 36.144c8.496 0 16.272-3.024 22.464-7.92 2.304-1.872 2.592-5.04.864-7.488-1.872-2.448-5.472-2.736-7.632-1.008-4.464 3.6-10.08 5.76-15.984 5.76-13.68 0-24.912-10.944-25.488-24.48h54.72zm-29.232-26.64c10.656 0 20.736 5.76 22.032 17.136h-46.08c3.456-9.936 12.96-17.136 24.048-17.136zm59.848 38.304c0 6.192-4.176 10.656-10.368 10.656h-8.928c-3.024 0-5.328 2.304-5.328 5.328 0 3.024 2.304 5.328 5.328 5.328h9.36c12.096 0 20.592-8.352 20.592-20.448v-26.352c0-6.192 4.32-10.656 10.368-10.656h8.928c3.024 0 5.328-2.304 5.328-5.328 0-2.88-2.304-5.328-5.328-5.328h-9.36c-12.096 0-20.592 8.352-20.592 20.448v26.352z"/>
    </symbol>

    <symbol id="organization" viewBox="0 0 175 200">
        <path stroke="#449FDB" d="M0 0"/><path d="M150 75h-125c-13.8 0-25 11.2-25 25v12.5c0 9.23 5.048 17.2 12.5 21.533v40.967h50v25h50v-25h50v-40.967c7.446-4.333 12.5-12.293 12.5-21.533v-12.5c0-13.8-11.206-25-25-25zm-100 87.5h-25v-50h-12.5v-12.5c0-6.897 5.603-12.5 12.5-12.5h15.96c-2.147 3.687-3.46 7.922-3.46 12.5v25c0 9.23 5.048 17.2 12.5 21.533v15.967zm62.5-25v-25h-12.5v75h-25v-75h-12.5v25c-6.897 0-12.5-5.59-12.5-12.5v-25c0-6.897 5.603-12.5 12.5-12.5h50c6.91 0 12.5 5.603 12.5 12.5v25c0 6.91-5.59 12.5-12.5 12.5zm50-25h-12.5v50h-25v-15.967c7.446-4.334 12.5-12.293 12.5-21.533v-25c0-4.578-1.318-8.813-3.467-12.5h15.967c6.91 0 12.5 5.603 12.5 12.5v12.5zm-103.186-50.513c6.872 7.91 16.888 13.013 28.186 13.013 11.304 0 21.313-5.103 28.186-13.013 4.26 7.727 12.378 13.013 21.814 13.013 13.794 0 25-11.2 25-25s-11.206-25-25-25c-5.005 0-9.644 1.502-13.55 4.04-3.857-16.624-18.665-29.04-36.45-29.04s-32.6 12.414-36.45 29.04c-3.912-2.537-8.55-4.04-13.55-4.04-13.8 0-25 11.2-25 25s11.2 25 25 25c9.436 0 17.548-5.286 21.814-13.013zm78.186-24.487c6.91 0 12.5 5.585 12.5 12.5s-5.59 12.5-12.5 12.5c-6.897 0-12.5-5.585-12.5-12.5s5.603-12.5 12.5-12.5zm-50-25c13.794 0 25 11.2 25 25s-11.206 25-25 25c-13.8 0-25-11.2-25-25s11.2-25 25-25zm-50 50c-6.897 0-12.5-5.585-12.5-12.5s5.603-12.5 12.5-12.5c6.915 0 12.5 5.585 12.5 12.5s-5.585 12.5-12.5 12.5z"/>
    </symbol>

    <symbol id="sitemap" viewBox="0 0 200 200">
        <path stroke="#449FDB" d="M0 0"/><path d="M0 175v-35.714q0-4.464 3.125-7.59t7.59-3.124h10.713v-21.43q0-5.803 4.24-10.044t10.046-4.24h57.143v-21.43h-10.714q-4.464 0-7.59-3.125t-3.124-7.59v-35.713q0-4.464 3.124-7.59t7.59-3.124h35.713q4.464 0 7.59 3.125t3.124 7.589v35.714q0 4.464-3.124 7.59t-7.59 3.124h-10.713v21.43h57.143q5.804 0 10.045 4.24t4.242 10.045v21.43h10.714q4.464 0 7.59 3.124t3.124 7.59v35.713q0 4.464-3.125 7.59t-7.59 3.124h-35.713q-4.464 0-7.59-3.125t-3.123-7.589v-35.714q0-4.464 3.125-7.59t7.59-3.124h10.713v-21.43h-57.143v21.43h10.714q4.464 0 7.59 3.125t3.124 7.59v35.713q0 4.464-3.124 7.59t-7.59 3.124h-35.715q-4.464 0-7.59-3.125t-3.124-7.589v-35.714q0-4.464 3.124-7.59t7.59-3.124h10.713v-21.43h-57.143v21.43h10.714q4.464 0 7.59 3.125t3.124 7.59v35.713q0 4.464-3.125 7.59t-7.59 3.124h-35.712q-4.464 0-7.59-3.125t-3.125-7.589z"/>
    </symbol>

    <symbol id="stethoscope" viewBox="0 0 157 200">
        <path stroke="#449FDB" d="M0 0"/><path d="M0 85.714v-57.144q0-2.9 2.12-5.02t5.023-2.122q.67 0 1.786.223 1.896-3.347 5.245-5.356t7.254-2.01q5.914 0 10.1 4.186t4.184 10.1-4.185 10.1-10.1 4.185q-3.684 0-7.144-2.01v44.867q0 11.83 10.49 20.2t25.227 8.372 25.223-8.37 10.49-20.202v-44.867q-3.46 2.01-7.142 2.01-5.914 0-10.1-4.186t-4.184-10.1 4.185-10.1 10.1-4.185q3.907 0 7.255 2.01t5.246 5.356q1.117-.222 1.787-.222 2.902 0 5.022 2.12t2.12 5.023v57.144q0 16.07-12.277 28.125t-30.58 14.285v14.732q0 11.83 10.49 20.2t25.224 8.372 25.223-8.372 10.49-20.2v-44.088q-6.36-2.344-10.323-7.813t-3.962-12.39q0-8.928 6.25-15.178t15.18-6.25 15.178 6.25 6.25 15.18q0 6.92-3.962 12.387t-10.323 7.812v44.085q0 17.746-14.676 30.3t-35.323 12.557-35.324-12.556-14.676-30.3v-14.733q-18.304-2.232-30.58-14.286t-12.281-28.122zm128.57-7.143q0 2.903 2.122 5.023t5.022 2.12 5.022-2.12 2.12-5.022-2.12-5.02-5.022-2.122-5.022 2.12-2.12 5.023z"/>
    </symbol>
</svg>