<?xml version="1.0" encoding="UTF-8" standalone="no"?>
<svg width="916px" height="107px" viewBox="0 0 916 107" version="1.1" xmlns="http://www.w3.org/2000/svg" xmlns:xlink="http://www.w3.org/1999/xlink" xmlns:sketch="http://www.bohemiancoding.com/sketch/ns">
    <!-- Generator: Sketch 3.0.4 (8054) - http://www.bohemiancoding.com/sketch -->
    <title>logo</title>
    <desc>Created with Sketch.</desc>
    <defs></defs>
    <g id="Page-1" stroke="none" stroke-width="1" fill="none" fill-rule="evenodd" sketch:type="MSPage">
        <g id="logo" sketch:type="MSLayerGroup" fill="#000000">
            <g id="Page-1" transform="translate(1.000000, 0.000000)" sketch:type="MSShapeGroup">
                <path d="M-0.312,98.672 C-0.312,101.696 2.136,104 5.016,104 C8.04,104 10.344,101.696 10.344,98.672 L10.344,5.504 C10.344,2.624 8.04,0.176 5.016,0.176 C2.136,0.176 -0.312,2.624 -0.312,5.504 L-0.312,98.672 L-0.312,98.672 Z M26.704,14.72 C26.704,18.752 30.016,22.064 34.048,22.064 C38.08,22.064 41.536,18.752 41.536,14.72 C41.536,10.544 38.08,7.232 34.048,7.232 C30.016,7.232 26.704,10.544 26.704,14.72 L26.704,14.72 Z M28.72,98.672 C28.72,101.696 31.168,104 34.048,104 C37.072,104 39.376,101.696 39.376,98.672 L39.376,41.216 C39.376,38.336 37.072,35.888 34.048,35.888 C31.168,35.888 28.72,38.336 28.72,41.216 L28.72,98.672 L28.72,98.672 Z M116.216,98.672 C116.216,101.696 118.52,104 121.544,104 C124.568,104 126.872,101.696 126.872,98.672 L126.872,66.56 C126.872,48.56 113.624,33.872 95.624,33.872 C84.392,33.872 74.456,38.912 68.552,47.12 L68.552,41.216 C68.552,38.336 66.248,35.888 63.224,35.888 C60.344,35.888 57.896,38.336 57.896,41.216 L57.896,98.672 C57.896,101.696 60.344,104 63.224,104 C66.248,104 68.552,101.696 68.552,98.672 L68.552,67.568 C68.552,55.76 78.92,44.24 93.464,44.24 C105.992,44.24 116.216,53.6 116.216,67.568 L116.216,98.672 L116.216,98.672 Z M203.424,71.024 C206.304,71.024 209.04,68.72 208.752,64.832 C207.744,46.688 192.768,33.872 174.48,33.872 C154.464,33.872 138.336,50 138.336,70.016 C138.336,90.032 154.464,106.16 174.48,106.16 C182.976,106.16 190.752,103.136 196.944,98.24 C199.248,96.368 199.536,93.2 197.808,90.752 C195.936,88.304 192.336,88.016 190.176,89.744 C185.712,93.344 180.096,95.504 174.192,95.504 C160.512,95.504 149.28,84.56 148.704,71.024 L203.424,71.024 L203.424,71.024 Z M174.192,44.384 C184.848,44.384 194.928,50.144 196.224,61.52 L150.144,61.52 C153.6,51.584 163.104,44.384 174.192,44.384 L174.192,44.384 Z M234.04,82.688 C234.04,88.88 229.864,93.344 223.672,93.344 L214.744,93.344 C211.72,93.344 209.416,95.648 209.416,98.672 C209.416,101.696 211.72,104 214.744,104 L224.104,104 C236.2,104 244.696,95.648 244.696,83.552 L244.696,57.2 C244.696,51.008 249.016,46.544 255.064,46.544 L263.992,46.544 C267.016,46.544 269.32,44.24 269.32,41.216 C269.32,38.336 267.016,35.888 263.992,35.888 L254.632,35.888 C242.536,35.888 234.04,44.24 234.04,56.336 L234.04,82.688 L234.04,82.688 Z M331.328,98.672 C331.328,101.696 333.776,104 336.656,104 C339.68,104 341.984,101.696 341.984,98.672 L341.984,41.216 C341.984,38.336 339.68,35.888 336.656,35.888 C333.776,35.888 331.328,38.336 331.328,41.216 L331.328,47.264 C325.424,39.2 316.208,33.872 305.264,33.872 C285.68,33.872 270.272,50 270.272,70.016 C270.272,90.032 285.68,106.16 305.264,106.16 C316.208,106.16 325.424,100.976 331.328,92.912 L331.328,98.672 L331.328,98.672 Z M280.928,70.016 C280.928,55.904 291.152,44.24 305.12,44.24 C319.232,44.24 331.328,55.472 331.328,70.016 C331.328,84.416 319.232,95.648 305.12,95.648 C291.152,95.648 280.928,83.984 280.928,70.016 L280.928,70.016 Z M418.68,98.672 C418.68,101.696 420.984,104 424.008,104 C427.032,104 429.336,101.696 429.336,98.672 L429.336,66.56 C429.336,48.56 416.088,33.872 398.088,33.872 C386.856,33.872 376.92,38.912 371.016,47.12 L371.016,41.216 C371.016,38.336 368.712,35.888 365.688,35.888 C362.808,35.888 360.36,38.336 360.36,41.216 L360.36,98.672 C360.36,101.696 362.808,104 365.688,104 C368.712,104 371.016,101.696 371.016,98.672 L371.016,67.568 C371.016,55.76 381.384,44.24 395.928,44.24 C408.456,44.24 418.68,53.6 418.68,67.568 L418.68,98.672 L418.68,98.672 Z M501.856,98.672 C501.856,101.696 504.304,104 507.184,104 C510.208,104 512.512,101.696 512.512,98.672 L512.512,5.504 C512.512,2.624 510.208,0.176 507.184,0.176 C504.304,0.176 501.856,2.624 501.856,5.504 L501.856,47.264 C495.952,39.2 486.736,33.872 475.792,33.872 C456.208,33.872 440.8,50 440.8,70.016 C440.8,90.032 456.208,106.16 475.792,106.16 C486.736,106.16 495.952,100.976 501.856,92.912 L501.856,98.672 L501.856,98.672 Z M451.456,70.016 C451.456,55.904 461.68,44.24 475.648,44.24 C489.76,44.24 501.856,55.472 501.856,70.016 C501.856,84.416 489.76,95.648 475.648,95.648 C461.68,95.648 451.456,83.984 451.456,70.016 L451.456,70.016 Z M588.488,101.84 C589.208,103.28 590.936,104.432 592.952,104.432 C594.968,104.432 596.696,103.28 597.416,101.84 L628.232,43.808 C629.528,41.36 628.952,37.904 626.072,36.464 C623.48,35.168 620.312,36.032 618.872,38.912 L592.952,87.728 L580.136,64.256 L591.224,43.808 C592.52,41.36 591.944,37.904 589.064,36.464 C586.472,35.168 583.304,36.032 581.864,38.912 L574.376,53.456 L567.032,38.912 C565.592,36.032 562.424,35.168 559.832,36.464 C556.952,37.904 556.376,41.36 557.672,43.808 L568.76,64.256 L555.944,87.728 L530.024,38.912 C528.584,36.032 525.416,35.168 522.824,36.464 C519.944,37.904 519.368,41.36 520.664,43.808 L551.48,101.84 C552.2,103.28 553.928,104.432 555.944,104.432 C557.96,104.432 559.688,103.28 560.408,101.84 L574.376,74.768 L588.488,101.84 L588.488,101.84 Z M691.536,98.672 C691.536,101.696 693.984,104 696.864,104 C699.888,104 702.192,101.696 702.192,98.672 L702.192,41.216 C702.192,38.336 699.888,35.888 696.864,35.888 C693.984,35.888 691.536,38.336 691.536,41.216 L691.536,47.264 C685.632,39.2 676.416,33.872 665.472,33.872 C645.888,33.872 630.48,50 630.48,70.016 C630.48,90.032 645.888,106.16 665.472,106.16 C676.416,106.16 685.632,100.976 691.536,92.912 L691.536,98.672 L691.536,98.672 Z M641.136,70.016 C641.136,55.904 651.36,44.24 665.328,44.24 C679.44,44.24 691.536,55.472 691.536,70.016 C691.536,84.416 679.44,95.648 665.328,95.648 C651.36,95.648 641.136,83.984 641.136,70.016 L641.136,70.016 Z M745.624,104.432 C747.64,104.432 749.368,103.28 750.088,101.84 L780.904,43.808 C782.2,41.36 781.624,37.904 778.744,36.464 C776.152,35.168 772.984,36.032 771.544,38.912 L745.624,87.728 L719.704,38.912 C718.264,36.032 715.096,35.168 712.504,36.464 C709.624,37.904 709.048,41.36 710.344,43.808 L741.16,101.84 C741.88,103.28 743.608,104.432 745.624,104.432 L745.624,104.432 Z M848.24,71.024 C851.12,71.024 853.856,68.72 853.568,64.832 C852.56,46.688 837.584,33.872 819.296,33.872 C799.28,33.872 783.152,50 783.152,70.016 C783.152,90.032 799.28,106.16 819.296,106.16 C827.792,106.16 835.568,103.136 841.76,98.24 C844.064,96.368 844.352,93.2 842.624,90.752 C840.752,88.304 837.152,88.016 834.992,89.744 C830.528,93.344 824.912,95.504 819.008,95.504 C805.328,95.504 794.096,84.56 793.52,71.024 L848.24,71.024 L848.24,71.024 Z M819.008,44.384 C829.664,44.384 839.744,50.144 841.04,61.52 L794.96,61.52 C798.416,51.584 807.92,44.384 819.008,44.384 L819.008,44.384 Z M878.856,82.688 C878.856,88.88 874.68,93.344 868.488,93.344 L859.56,93.344 C856.536,93.344 854.232,95.648 854.232,98.672 C854.232,101.696 856.536,104 859.56,104 L868.92,104 C881.016,104 889.512,95.648 889.512,83.552 L889.512,57.2 C889.512,51.008 893.832,46.544 899.88,46.544 L908.808,46.544 C911.832,46.544 914.136,44.24 914.136,41.216 C914.136,38.336 911.832,35.888 908.808,35.888 L899.448,35.888 C887.352,35.888 878.856,44.24 878.856,56.336 L878.856,82.688 L878.856,82.688 Z" id="linesandwaves"></path>
            </g>
        </g>
    </g>
</svg>