<?xml version="1.0" encoding="utf-8"?>
<!-- Generated by IcoMoon.io -->
<!DOCTYPE svg PUBLIC "-//W3C//DTD SVG 1.1//EN" "http://www.w3.org/Graphics/SVG/1.1/DTD/svg11.dtd">
<svg version="1.1" xmlns="http://www.w3.org/2000/svg" xmlns:xlink="http://www.w3.org/1999/xlink" width="175" height="200" viewBox="0 0 175 200">
<g id="icomoon-ignore">
	<line stroke-width="1" x1="" y1="" x2="" y2="" stroke="#449FDB" opacity=""></line>
</g>
	<path d="M150 75h-125c-13.8 0-25 11.2-25 25v12.5c0 9.229 5.048 17.2 12.5 21.533v40.967h50v25h50v-25h50v-40.967c7.446-4.334 12.5-12.293 12.5-21.533v-12.5c0-13.8-11.206-25-25-25zM50 162.5h-25v-50h-12.5v-12.5c0-6.897 5.603-12.5 12.5-12.5h15.961c-2.148 3.687-3.461 7.922-3.461 12.5v25c0 9.229 5.048 17.2 12.5 21.533v15.967zM112.5 137.5v-25h-12.5v75h-25v-75h-12.5v25c-6.897 0-12.5-5.591-12.5-12.5v-25c0-6.897 5.603-12.5 12.5-12.5h50c6.909 0 12.5 5.603 12.5 12.5v25c0 6.909-5.591 12.5-12.5 12.5zM162.5 112.5h-12.5v50h-25v-15.967c7.446-4.334 12.5-12.293 12.5-21.533v-25c0-4.578-1.318-8.813-3.467-12.5h15.967c6.909 0 12.5 5.603 12.5 12.5v12.5zM59.314 61.987c6.872 7.91 16.888 13.013 28.186 13.013 11.304 0 21.313-5.103 28.186-13.013 4.26 7.727 12.378 13.013 21.814 13.013 13.794 0 25-11.2 25-25s-11.206-25-25-25c-5.005 0-9.644 1.502-13.55 4.041-3.857-16.626-18.665-29.041-36.45-29.041s-32.599 12.414-36.45 29.041c-3.912-2.539-8.551-4.041-13.55-4.041-13.8 0-25 11.2-25 25s11.2 25 25 25c9.436 0 17.548-5.286 21.814-13.013zM137.5 37.5c6.909 0 12.5 5.585 12.5 12.5s-5.591 12.5-12.5 12.5c-6.897 0-12.5-5.585-12.5-12.5s5.603-12.5 12.5-12.5zM87.5 12.5c13.794 0 25 11.2 25 25s-11.206 25-25 25c-13.8 0-25-11.2-25-25s11.2-25 25-25zM37.5 62.5c-6.897 0-12.5-5.585-12.5-12.5s5.603-12.5 12.5-12.5c6.915 0 12.5 5.585 12.5 12.5s-5.585 12.5-12.5 12.5z" fill="#000000"></path>
</svg>
