<?xml version="1.0" encoding="utf-8"?>
<!-- Generated by IcoMoon.io -->
<!DOCTYPE svg PUBLIC "-//W3C//DTD SVG 1.1//EN" "http://www.w3.org/Graphics/SVG/1.1/DTD/svg11.dtd">
<svg version="1.1" xmlns="http://www.w3.org/2000/svg" xmlns:xlink="http://www.w3.org/1999/xlink" width="157" height="200" viewBox="0 0 157 200">
<g id="icomoon-ignore">
	<line stroke-width="1" x1="" y1="" x2="" y2="" stroke="#449FDB" opacity=""></line>
</g>
	<path d="M0 85.714v-57.143q0-2.902 2.121-5.022t5.022-2.121q0.67 0 1.786 0.223 1.897-3.348 5.246-5.357t7.254-2.009q5.915 0 10.1 4.185t4.185 10.1-4.185 10.1-10.1 4.185q-3.683 0-7.143-2.009v44.866q0 11.83 10.491 20.201t25.223 8.371 25.223-8.371 10.491-20.201v-44.866q-3.46 2.009-7.143 2.009-5.915 0-10.1-4.185t-4.185-10.1 4.185-10.1 10.1-4.185q3.906 0 7.254 2.009t5.246 5.357q1.116-0.223 1.786-0.223 2.902 0 5.022 2.121t2.121 5.022v57.143q0 16.071-12.277 28.125t-30.58 14.286v14.732q0 11.83 10.491 20.201t25.223 8.371 25.223-8.371 10.491-20.201v-44.085q-6.362-2.344-10.324-7.813t-3.962-12.388q0-8.929 6.25-15.179t15.179-6.25 15.179 6.25 6.25 15.179q0 6.92-3.962 12.388t-10.324 7.813v44.085q0 17.746-14.676 30.301t-35.324 12.556-35.324-12.556-14.676-30.301v-14.732q-18.304-2.232-30.58-14.286t-12.277-28.125zM128.571 78.571q0 2.902 2.121 5.022t5.022 2.121 5.022-2.121 2.121-5.022-2.121-5.022-5.022-2.121-5.022 2.121-2.121 5.022z" fill="#000000"></path>
</svg>
